<svg width="132" height="30" viewBox="0 0 132 30" fill="none" xmlns="http://www.w3.org/2000/svg">
<path d="M0.5 28.2573V28.7573H1H24.6442H25.1442V28.2573V22.9841V22.4841H24.6442H8.79249V1.7427V1.2427H8.29249H1H0.5V1.7427V28.2573ZM80.1166 18.0822V18.5822H80.6166H86.4875C86.0149 20.3303 85.1614 21.4937 84.045 22.2442C82.791 23.087 81.1452 23.4496 79.1881 23.4496C76.0154 23.4496 73.9266 22.299 72.6209 20.7039C71.3016 19.0921 70.7417 16.976 70.7417 15C70.7417 13.024 71.3016 10.9079 72.6209 9.29614C73.9266 7.70095 76.0154 6.5504 79.1881 6.5504C81.7577 6.5504 84.5251 7.46977 85.5547 10.5891L85.668 10.9324H86.0295H94.149H94.7475L94.641 10.3434C93.952 6.53157 91.7436 4.05089 88.7648 2.54077C85.8088 1.04224 82.1015 0.5 78.3611 0.5C73.2102 0.5 69.1137 1.98614 66.2997 4.56791C63.4821 7.15292 61.9981 10.7931 61.9981 15C61.9981 20.0286 63.5588 23.6874 66.4459 26.0756C69.3154 28.4492 73.415 29.5 78.3611 29.5C82.7835 29.5 86.7124 28.5279 89.4069 26.0998L90.1389 28.4084L90.2495 28.7573H90.6155H94.2994H94.7994V28.2573V13.4775V12.9775H94.2994H80.6166H80.1166V13.4775V18.0822ZM34.868 15C34.868 13.024 35.4279 10.9079 36.7472 9.29614C38.0529 7.70095 40.1417 6.5504 43.3145 6.5504C46.4872 6.5504 48.576 7.70095 49.8818 9.29614C51.201 10.9079 51.7609 13.024 51.7609 15C51.7609 16.976 51.201 19.0921 49.8818 20.7039C48.576 22.299 46.4872 23.4496 43.3145 23.4496C40.1417 23.4496 38.0529 22.299 36.7472 20.7039C35.4279 19.0921 34.868 16.976 34.868 15ZM26.1244 15C26.1244 17.8224 26.6978 21.4605 29.1742 24.3973C31.6644 27.3502 35.9975 29.5 43.3145 29.5C50.6315 29.5 54.9646 27.3502 57.4547 24.3973C59.9312 21.4605 60.5045 17.8224 60.5045 15C60.5045 12.1776 59.9312 8.53952 57.4547 5.60274C54.9646 2.64976 50.6315 0.5 43.3145 0.5C35.9975 0.5 31.6644 2.64976 29.1742 5.60274C26.6978 8.53952 26.1244 12.1776 26.1244 15ZM105.864 15C105.864 13.024 106.423 10.9079 107.743 9.29614C109.048 7.70095 111.137 6.5504 114.31 6.5504C117.483 6.5504 119.572 7.70095 120.877 9.29614C122.197 10.9079 122.756 13.024 122.756 15C122.756 16.976 122.197 19.0921 120.877 20.7039C119.572 22.299 117.483 23.4496 114.31 23.4496C111.137 23.4496 109.048 22.299 107.743 20.7039C106.423 19.0921 105.864 16.976 105.864 15ZM97.1199 15C97.1199 17.8224 97.6932 21.4605 100.17 24.3973C102.66 27.3502 106.993 29.5 114.31 29.5C121.627 29.5 125.96 27.3502 128.45 24.3973C130.927 21.4605 131.5 17.8224 131.5 15C131.5 12.1776 130.927 8.53952 128.45 5.60274C125.96 2.64976 121.627 0.5 114.31 0.5C106.993 0.5 102.66 2.64976 100.17 5.60274C97.6932 8.53952 97.1199 12.1776 97.1199 15Z" fill="white"/>
<path d="M0.5 28.2573V28.7573H1H24.6442H25.1442V28.2573V22.9841V22.4841H24.6442H8.79249V1.7427V1.2427H8.29249H1H0.5V1.7427V28.2573ZM80.1166 18.0822V18.5822H80.6166H86.4875C86.0149 20.3303 85.1614 21.4937 84.045 22.2442C82.791 23.087 81.1452 23.4496 79.1881 23.4496C76.0154 23.4496 73.9266 22.299 72.6209 20.7039C71.3016 19.0921 70.7417 16.976 70.7417 15C70.7417 13.024 71.3016 10.9079 72.6209 9.29614C73.9266 7.70095 76.0154 6.5504 79.1881 6.5504C81.7577 6.5504 84.5251 7.46977 85.5547 10.5891L85.668 10.9324H86.0295H94.149H94.7475L94.641 10.3434C93.952 6.53157 91.7436 4.05089 88.7648 2.54077C85.8088 1.04224 82.1015 0.5 78.3611 0.5C73.2102 0.5 69.1137 1.98614 66.2997 4.56791C63.4821 7.15292 61.9981 10.7931 61.9981 15C61.9981 20.0286 63.5588 23.6874 66.4459 26.0756C69.3154 28.4492 73.415 29.5 78.3611 29.5C82.7835 29.5 86.7124 28.5279 89.4069 26.0998L90.1389 28.4084L90.2495 28.7573H90.6155H94.2994H94.7994V28.2573V13.4775V12.9775H94.2994H80.6166H80.1166V13.4775V18.0822ZM34.868 15C34.868 13.024 35.4279 10.9079 36.7472 9.29614C38.0529 7.70095 40.1417 6.5504 43.3145 6.5504C46.4872 6.5504 48.576 7.70095 49.8818 9.29614C51.201 10.9079 51.7609 13.024 51.7609 15C51.7609 16.976 51.201 19.0921 49.8818 20.7039C48.576 22.299 46.4872 23.4496 43.3145 23.4496C40.1417 23.4496 38.0529 22.299 36.7472 20.7039C35.4279 19.0921 34.868 16.976 34.868 15ZM26.1244 15C26.1244 17.8224 26.6978 21.4605 29.1742 24.3973C31.6644 27.3502 35.9975 29.5 43.3145 29.5C50.6315 29.5 54.9646 27.3502 57.4547 24.3973C59.9312 21.4605 60.5045 17.8224 60.5045 15C60.5045 12.1776 59.9312 8.53952 57.4547 5.60274C54.9646 2.64976 50.6315 0.5 43.3145 0.5C35.9975 0.5 31.6644 2.64976 29.1742 5.60274C26.6978 8.53952 26.1244 12.1776 26.1244 15ZM105.864 15C105.864 13.024 106.423 10.9079 107.743 9.29614C109.048 7.70095 111.137 6.5504 114.31 6.5504C117.483 6.5504 119.572 7.70095 120.877 9.29614C122.197 10.9079 122.756 13.024 122.756 15C122.756 16.976 122.197 19.0921 120.877 20.7039C119.572 22.299 117.483 23.4496 114.31 23.4496C111.137 23.4496 109.048 22.299 107.743 20.7039C106.423 19.0921 105.864 16.976 105.864 15ZM97.1199 15C97.1199 17.8224 97.6932 21.4605 100.17 24.3973C102.66 27.3502 106.993 29.5 114.31 29.5C121.627 29.5 125.96 27.3502 128.45 24.3973C130.927 21.4605 131.5 17.8224 131.5 15C131.5 12.1776 130.927 8.53952 128.45 5.60274C125.96 2.64976 121.627 0.5 114.31 0.5C106.993 0.5 102.66 2.64976 100.17 5.60274C97.6932 8.53952 97.1199 12.1776 97.1199 15Z" fill="#C8C8C8"/>
<path d="M0.5 28.2573V28.7573H1H24.6442H25.1442V28.2573V22.9841V22.4841H24.6442H8.79249V1.7427V1.2427H8.29249H1H0.5V1.7427V28.2573ZM80.1166 18.0822V18.5822H80.6166H86.4875C86.0149 20.3303 85.1614 21.4937 84.045 22.2442C82.791 23.087 81.1452 23.4496 79.1881 23.4496C76.0154 23.4496 73.9266 22.299 72.6209 20.7039C71.3016 19.0921 70.7417 16.976 70.7417 15C70.7417 13.024 71.3016 10.9079 72.6209 9.29614C73.9266 7.70095 76.0154 6.5504 79.1881 6.5504C81.7577 6.5504 84.5251 7.46977 85.5547 10.5891L85.668 10.9324H86.0295H94.149H94.7475L94.641 10.3434C93.952 6.53157 91.7436 4.05089 88.7648 2.54077C85.8088 1.04224 82.1015 0.5 78.3611 0.5C73.2102 0.5 69.1137 1.98614 66.2997 4.56791C63.4821 7.15292 61.9981 10.7931 61.9981 15C61.9981 20.0286 63.5588 23.6874 66.4459 26.0756C69.3154 28.4492 73.415 29.5 78.3611 29.5C82.7835 29.5 86.7124 28.5279 89.4069 26.0998L90.1389 28.4084L90.2495 28.7573H90.6155H94.2994H94.7994V28.2573V13.4775V12.9775H94.2994H80.6166H80.1166V13.4775V18.0822ZM34.868 15C34.868 13.024 35.4279 10.9079 36.7472 9.29614C38.0529 7.70095 40.1417 6.5504 43.3145 6.5504C46.4872 6.5504 48.576 7.70095 49.8818 9.29614C51.201 10.9079 51.7609 13.024 51.7609 15C51.7609 16.976 51.201 19.0921 49.8818 20.7039C48.576 22.299 46.4872 23.4496 43.3145 23.4496C40.1417 23.4496 38.0529 22.299 36.7472 20.7039C35.4279 19.0921 34.868 16.976 34.868 15ZM26.1244 15C26.1244 17.8224 26.6978 21.4605 29.1742 24.3973C31.6644 27.3502 35.9975 29.5 43.3145 29.5C50.6315 29.5 54.9646 27.3502 57.4547 24.3973C59.9312 21.4605 60.5045 17.8224 60.5045 15C60.5045 12.1776 59.9312 8.53952 57.4547 5.60274C54.9646 2.64976 50.6315 0.5 43.3145 0.5C35.9975 0.5 31.6644 2.64976 29.1742 5.60274C26.6978 8.53952 26.1244 12.1776 26.1244 15ZM105.864 15C105.864 13.024 106.423 10.9079 107.743 9.29614C109.048 7.70095 111.137 6.5504 114.31 6.5504C117.483 6.5504 119.572 7.70095 120.877 9.29614C122.197 10.9079 122.756 13.024 122.756 15C122.756 16.976 122.197 19.0921 120.877 20.7039C119.572 22.299 117.483 23.4496 114.31 23.4496C111.137 23.4496 109.048 22.299 107.743 20.7039C106.423 19.0921 105.864 16.976 105.864 15ZM97.1199 15C97.1199 17.8224 97.6932 21.4605 100.17 24.3973C102.66 27.3502 106.993 29.5 114.31 29.5C121.627 29.5 125.96 27.3502 128.45 24.3973C130.927 21.4605 131.5 17.8224 131.5 15C131.5 12.1776 130.927 8.53952 128.45 5.60274C125.96 2.64976 121.627 0.5 114.31 0.5C106.993 0.5 102.66 2.64976 100.17 5.60274C97.6932 8.53952 97.1199 12.1776 97.1199 15Z" fill="url(#paint0_radial_2285_589)"/>
<path d="M0.5 28.2573V28.7573H1H24.6442H25.1442V28.2573V22.9841V22.4841H24.6442H8.79249V1.7427V1.2427H8.29249H1H0.5V1.7427V28.2573ZM80.1166 18.0822V18.5822H80.6166H86.4875C86.0149 20.3303 85.1614 21.4937 84.045 22.2442C82.791 23.087 81.1452 23.4496 79.1881 23.4496C76.0154 23.4496 73.9266 22.299 72.6209 20.7039C71.3016 19.0921 70.7417 16.976 70.7417 15C70.7417 13.024 71.3016 10.9079 72.6209 9.29614C73.9266 7.70095 76.0154 6.5504 79.1881 6.5504C81.7577 6.5504 84.5251 7.46977 85.5547 10.5891L85.668 10.9324H86.0295H94.149H94.7475L94.641 10.3434C93.952 6.53157 91.7436 4.05089 88.7648 2.54077C85.8088 1.04224 82.1015 0.5 78.3611 0.5C73.2102 0.5 69.1137 1.98614 66.2997 4.56791C63.4821 7.15292 61.9981 10.7931 61.9981 15C61.9981 20.0286 63.5588 23.6874 66.4459 26.0756C69.3154 28.4492 73.415 29.5 78.3611 29.5C82.7835 29.5 86.7124 28.5279 89.4069 26.0998L90.1389 28.4084L90.2495 28.7573H90.6155H94.2994H94.7994V28.2573V13.4775V12.9775H94.2994H80.6166H80.1166V13.4775V18.0822ZM34.868 15C34.868 13.024 35.4279 10.9079 36.7472 9.29614C38.0529 7.70095 40.1417 6.5504 43.3145 6.5504C46.4872 6.5504 48.576 7.70095 49.8818 9.29614C51.201 10.9079 51.7609 13.024 51.7609 15C51.7609 16.976 51.201 19.0921 49.8818 20.7039C48.576 22.299 46.4872 23.4496 43.3145 23.4496C40.1417 23.4496 38.0529 22.299 36.7472 20.7039C35.4279 19.0921 34.868 16.976 34.868 15ZM26.1244 15C26.1244 17.8224 26.6978 21.4605 29.1742 24.3973C31.6644 27.3502 35.9975 29.5 43.3145 29.5C50.6315 29.5 54.9646 27.3502 57.4547 24.3973C59.9312 21.4605 60.5045 17.8224 60.5045 15C60.5045 12.1776 59.9312 8.53952 57.4547 5.60274C54.9646 2.64976 50.6315 0.5 43.3145 0.5C35.9975 0.5 31.6644 2.64976 29.1742 5.60274C26.6978 8.53952 26.1244 12.1776 26.1244 15ZM105.864 15C105.864 13.024 106.423 10.9079 107.743 9.29614C109.048 7.70095 111.137 6.5504 114.31 6.5504C117.483 6.5504 119.572 7.70095 120.877 9.29614C122.197 10.9079 122.756 13.024 122.756 15C122.756 16.976 122.197 19.0921 120.877 20.7039C119.572 22.299 117.483 23.4496 114.31 23.4496C111.137 23.4496 109.048 22.299 107.743 20.7039C106.423 19.0921 105.864 16.976 105.864 15ZM97.1199 15C97.1199 17.8224 97.6932 21.4605 100.17 24.3973C102.66 27.3502 106.993 29.5 114.31 29.5C121.627 29.5 125.96 27.3502 128.45 24.3973C130.927 21.4605 131.5 17.8224 131.5 15C131.5 12.1776 130.927 8.53952 128.45 5.60274C125.96 2.64976 121.627 0.5 114.31 0.5C106.993 0.5 102.66 2.64976 100.17 5.60274C97.6932 8.53952 97.1199 12.1776 97.1199 15Z" fill="white" fill-opacity="0.2"/>
<path d="M0.5 28.2573V28.7573H1H24.6442H25.1442V28.2573V22.9841V22.4841H24.6442H8.79249V1.7427V1.2427H8.29249H1H0.5V1.7427V28.2573ZM80.1166 18.0822V18.5822H80.6166H86.4875C86.0149 20.3303 85.1614 21.4937 84.045 22.2442C82.791 23.087 81.1452 23.4496 79.1881 23.4496C76.0154 23.4496 73.9266 22.299 72.6209 20.7039C71.3016 19.0921 70.7417 16.976 70.7417 15C70.7417 13.024 71.3016 10.9079 72.6209 9.29614C73.9266 7.70095 76.0154 6.5504 79.1881 6.5504C81.7577 6.5504 84.5251 7.46977 85.5547 10.5891L85.668 10.9324H86.0295H94.149H94.7475L94.641 10.3434C93.952 6.53157 91.7436 4.05089 88.7648 2.54077C85.8088 1.04224 82.1015 0.5 78.3611 0.5C73.2102 0.5 69.1137 1.98614 66.2997 4.56791C63.4821 7.15292 61.9981 10.7931 61.9981 15C61.9981 20.0286 63.5588 23.6874 66.4459 26.0756C69.3154 28.4492 73.415 29.5 78.3611 29.5C82.7835 29.5 86.7124 28.5279 89.4069 26.0998L90.1389 28.4084L90.2495 28.7573H90.6155H94.2994H94.7994V28.2573V13.4775V12.9775H94.2994H80.6166H80.1166V13.4775V18.0822ZM34.868 15C34.868 13.024 35.4279 10.9079 36.7472 9.29614C38.0529 7.70095 40.1417 6.5504 43.3145 6.5504C46.4872 6.5504 48.576 7.70095 49.8818 9.29614C51.201 10.9079 51.7609 13.024 51.7609 15C51.7609 16.976 51.201 19.0921 49.8818 20.7039C48.576 22.299 46.4872 23.4496 43.3145 23.4496C40.1417 23.4496 38.0529 22.299 36.7472 20.7039C35.4279 19.0921 34.868 16.976 34.868 15ZM26.1244 15C26.1244 17.8224 26.6978 21.4605 29.1742 24.3973C31.6644 27.3502 35.9975 29.5 43.3145 29.5C50.6315 29.5 54.9646 27.3502 57.4547 24.3973C59.9312 21.4605 60.5045 17.8224 60.5045 15C60.5045 12.1776 59.9312 8.53952 57.4547 5.60274C54.9646 2.64976 50.6315 0.5 43.3145 0.5C35.9975 0.5 31.6644 2.64976 29.1742 5.60274C26.6978 8.53952 26.1244 12.1776 26.1244 15ZM105.864 15C105.864 13.024 106.423 10.9079 107.743 9.29614C109.048 7.70095 111.137 6.5504 114.31 6.5504C117.483 6.5504 119.572 7.70095 120.877 9.29614C122.197 10.9079 122.756 13.024 122.756 15C122.756 16.976 122.197 19.0921 120.877 20.7039C119.572 22.299 117.483 23.4496 114.31 23.4496C111.137 23.4496 109.048 22.299 107.743 20.7039C106.423 19.0921 105.864 16.976 105.864 15ZM97.1199 15C97.1199 17.8224 97.6932 21.4605 100.17 24.3973C102.66 27.3502 106.993 29.5 114.31 29.5C121.627 29.5 125.96 27.3502 128.45 24.3973C130.927 21.4605 131.5 17.8224 131.5 15C131.5 12.1776 130.927 8.53952 128.45 5.60274C125.96 2.64976 121.627 0.5 114.31 0.5C106.993 0.5 102.66 2.64976 100.17 5.60274C97.6932 8.53952 97.1199 12.1776 97.1199 15Z" stroke="black"/>
<defs>
<radialGradient id="paint0_radial_2285_589" cx="0" cy="0" r="1" gradientUnits="userSpaceOnUse" gradientTransform="translate(112.583 29) rotate(180) scale(100.716 28)">
<stop stop-color="#FDAB01"/>
<stop offset="1" stop-color="#FDAB01" stop-opacity="0"/>
</radialGradient>
</defs>
</svg>
