<svg width="133" height="33" viewBox="0 0 133 33" fill="none" xmlns="http://www.w3.org/2000/svg">
<path d="M66.6508 17.9214C65.6886 17.9261 64.7492 18.2293 63.9513 18.7927C63.1534 19.356 62.5328 20.1543 62.1677 21.0868C61.8026 22.0193 61.7094 23.0441 61.8999 24.032C62.0904 25.0199 62.556 25.9266 63.238 26.6376C63.9201 27.3485 64.7879 27.832 65.732 28.0268C66.6761 28.2217 67.6542 28.1193 68.5428 27.7325C69.4314 27.3458 70.1906 26.692 70.7248 25.8537C71.2589 25.0154 71.544 24.0301 71.544 23.0223C71.5534 22.3477 71.433 21.678 71.1901 21.0531C70.9472 20.4283 70.5868 19.861 70.1302 19.385C69.6736 18.9091 69.1303 18.5342 68.5326 18.2828C67.9348 18.0313 67.2949 17.9084 66.6508 17.9214ZM66.6508 26.1188C66.059 26.1622 65.4685 26.018 64.9559 25.7052C64.4434 25.3924 64.0325 24.9253 63.7768 24.3646C63.5211 23.804 63.4323 23.1757 63.522 22.5616C63.6117 21.9474 63.8758 21.3757 64.2798 20.9207C64.6839 20.4658 65.2093 20.1487 65.7877 20.0107C66.3661 19.8726 66.9708 19.92 67.5231 20.1467C68.0755 20.3733 68.5499 20.7688 68.8849 21.2816C69.2198 21.7944 69.3997 22.4009 69.4011 23.0223C69.4196 23.416 69.3626 23.8095 69.2335 24.1798C69.1044 24.55 68.9058 24.8895 68.6495 25.1781C68.3932 25.4667 68.0843 25.6986 67.741 25.8602C67.3978 26.0217 67.0271 26.1097 66.6508 26.1188ZM55.9821 17.9214C55.0193 17.9237 54.0788 18.2249 53.2794 18.7869C52.48 19.3488 51.8576 20.1463 51.4907 21.0785C51.1239 22.0108 51.029 23.0361 51.2183 24.0247C51.4075 25.0134 51.8722 25.9212 52.5538 26.6334C53.2354 27.3455 54.1032 27.8302 55.0476 28.026C55.992 28.2219 56.9707 28.1202 57.8599 27.7337C58.7492 27.3473 59.5092 26.6935 60.0438 25.8549C60.5785 25.0163 60.8638 24.0306 60.8638 23.0223C60.8731 22.3477 60.7528 21.678 60.5099 21.0531C60.267 20.4283 59.9066 19.861 59.45 19.385C58.9934 18.9091 58.4501 18.5342 57.8524 18.2828C57.2546 18.0313 56.6147 17.9084 55.9706 17.9214H55.9821ZM55.9821 26.1188C55.39 26.1646 54.7985 26.0226 54.2845 25.7114C53.7706 25.4002 53.358 24.9341 53.1004 24.3738C52.8429 23.8136 52.7524 23.1851 52.8407 22.5702C52.929 21.9553 53.192 21.3825 53.5954 20.9263C53.9989 20.4702 54.5241 20.1518 55.1028 20.0127C55.6814 19.8735 56.2866 19.92 56.8397 20.1462C57.3927 20.3723 57.8679 20.7676 58.2034 21.2806C58.539 21.7936 58.7193 22.4005 58.7209 23.0223C58.7394 23.416 58.6824 23.8095 58.5533 24.1798C58.4242 24.55 58.2256 24.8895 57.9693 25.1781C57.713 25.4667 57.4041 25.6986 57.0608 25.8602C56.7175 26.0217 56.3469 26.1097 55.9706 26.1188H55.9821ZM43.2736 19.4936V21.654H48.224C48.1464 22.6716 47.7426 23.6317 47.0781 24.3785C46.5828 24.9069 45.9874 25.3208 45.3302 25.5937C44.673 25.8665 43.9685 25.9923 43.2621 25.9628C41.8033 25.9628 40.4042 25.3558 39.3726 24.2754C38.3411 23.195 37.7616 21.7297 37.7616 20.2018C37.7616 18.6739 38.3411 17.2085 39.3726 16.1281C40.4042 15.0477 41.8033 14.4408 43.2621 14.4408C44.6576 14.4169 46.0052 14.9737 47.0093 15.989L48.4647 14.4648C47.7868 13.7459 46.9781 13.1768 46.0864 12.7913C45.1947 12.4057 44.2382 12.2116 43.2736 12.2204C42.2548 12.1788 41.2385 12.3531 40.2856 12.7328C39.3328 13.1125 38.4628 13.6897 37.7281 14.43C36.9933 15.1702 36.4087 16.0581 36.0094 17.0406C35.6101 18.0231 35.4043 19.08 35.4043 20.1478C35.4043 21.2156 35.6101 22.2724 36.0094 23.2549C36.4087 24.2374 36.9933 25.1253 37.7281 25.8656C38.4628 26.6058 39.3328 27.183 40.2856 27.5627C41.2385 27.9424 42.2548 28.1167 43.2736 28.0752C44.2544 28.1216 45.2334 27.9474 46.1447 27.5644C47.0559 27.1814 47.8782 26.5985 48.5564 25.8548C49.7569 24.4732 50.3979 22.6571 50.344 20.7899C50.3477 20.335 50.3094 19.8808 50.2294 19.4336L43.2736 19.4936ZM95.1963 21.1739C94.8975 20.2531 94.3386 19.449 93.5937 18.8682C92.8488 18.2873 91.9531 17.9572 91.0251 17.9214C90.3982 17.9201 89.7778 18.0535 89.2021 18.3133C88.6265 18.5731 88.1078 18.9538 87.6782 19.4319C87.2486 19.91 86.9172 20.4752 86.7044 21.0928C86.4917 21.7103 86.4021 22.367 86.4413 23.0223C86.4274 23.6931 86.5427 24.36 86.7803 24.983C87.018 25.6061 87.3731 26.1727 87.8245 26.6488C88.2759 27.1249 88.8143 27.5009 89.4075 27.7542C90.0007 28.0075 90.6366 28.133 91.2772 28.1232C92.0788 28.1277 92.8689 27.9239 93.5769 27.5302C94.2848 27.1364 94.8885 26.5649 95.3338 25.8668L93.6722 24.6666C93.4242 25.0996 93.0731 25.4577 92.6533 25.706C92.2335 25.9542 91.7593 26.0841 91.2772 26.0828C90.7808 26.1026 90.2902 25.9656 89.8692 25.6894C89.4482 25.4133 89.1162 25.0109 88.9165 24.5345L95.437 21.714L95.1963 21.1739ZM88.5498 22.8782C88.5266 22.507 88.5743 22.1347 88.6902 21.783C88.8061 21.4313 88.9878 21.1074 89.2248 20.8302C89.4617 20.553 89.749 20.3281 90.07 20.1687C90.3909 20.0092 90.739 19.9185 91.0938 19.9017C91.4635 19.8762 91.8321 19.965 92.154 20.157C92.4759 20.3491 92.7368 20.6359 92.9044 20.9819L88.5498 22.8782ZM83.2556 27.8231H85.3985V12.8205H83.2556V27.8231ZM79.749 19.0616H79.6688C79.3458 18.6834 78.9502 18.381 78.5078 18.1741C78.0654 17.9673 77.5863 17.8607 77.1018 17.8614C75.8495 17.925 74.6686 18.4908 73.8038 19.4415C72.939 20.3923 72.4566 21.6551 72.4566 22.9683C72.4566 24.2814 72.939 25.5442 73.8038 26.495C74.6686 27.4457 75.8495 28.0116 77.1018 28.0752C77.5875 28.0837 78.0689 27.9807 78.5124 27.7733C78.9559 27.566 79.3506 27.2593 79.6688 26.8749H79.7375V27.6071C79.7375 29.5634 78.7405 30.6076 77.1362 30.6076C76.6019 30.5945 76.0834 30.4152 75.6466 30.0924C75.2099 29.7697 74.8748 29.3182 74.6839 28.7953L72.816 29.6114C73.1676 30.5072 73.7667 31.2726 74.5365 31.8093C75.3062 32.3461 76.2115 32.6298 77.1362 32.624C79.6458 32.624 81.72 31.0757 81.72 27.307V18.2214H79.749V19.0616ZM77.2967 26.1188C76.5575 26.0506 75.8695 25.6948 75.3683 25.1216C74.8672 24.5485 74.5892 23.7995 74.5892 23.0223C74.5892 22.2451 74.8672 21.4961 75.3683 20.9229C75.8695 20.3497 76.5575 19.9939 77.2967 19.9257C77.6632 19.9454 78.0222 20.0417 78.3526 20.209C78.683 20.3763 78.9781 20.6111 79.2205 20.8997C79.4629 21.1883 79.6478 21.5247 79.7641 21.8893C79.8804 22.2538 79.9259 22.639 79.8979 23.0223C79.9292 23.4072 79.8856 23.7947 79.7698 24.1615C79.654 24.5282 79.4683 24.8665 79.2241 25.156C78.9799 25.4454 78.6821 25.68 78.3489 25.8455C78.0156 26.011 77.6537 26.104 77.2852 26.1188H77.2967ZM105.235 12.8205H100.112V27.8231H102.255V22.1341H105.246C105.857 22.1801 106.47 22.0937 107.048 21.8805C107.625 21.6673 108.155 21.3318 108.603 20.8949C109.051 20.458 109.408 19.929 109.653 19.341C109.897 18.753 110.023 18.1186 110.023 17.4773C110.023 16.836 109.897 16.2016 109.653 15.6136C109.408 15.0256 109.051 14.4966 108.603 14.0597C108.155 13.6228 107.625 13.2872 107.048 13.074C106.47 12.8608 105.857 12.7745 105.246 12.8205H105.235ZM105.235 20.0217H102.244V14.9088H105.281C105.933 14.9088 106.558 15.1801 107.019 15.6629C107.48 16.1457 107.739 16.8005 107.739 17.4833C107.739 18.1661 107.48 18.8209 107.019 19.3037C106.558 19.7865 105.933 20.0577 105.281 20.0577L105.235 20.0217ZM118.448 17.8614C117.667 17.8125 116.891 18.0035 116.213 18.4107C115.535 18.818 114.985 19.4238 114.632 20.1538L116.534 20.9819C116.721 20.6199 117.005 20.3227 117.351 20.1267C117.697 19.9306 118.09 19.8441 118.482 19.8777C118.754 19.8444 119.03 19.8682 119.293 19.9477C119.556 20.0272 119.801 20.1608 120.015 20.3406C120.228 20.5205 120.405 20.7431 120.535 20.9954C120.666 21.2477 120.747 21.5246 120.774 21.8101V21.9661C120.086 21.5844 119.318 21.3865 118.539 21.39C116.488 21.39 114.414 22.5902 114.414 24.7626C114.434 25.2258 114.543 25.68 114.734 26.0985C114.924 26.5169 115.193 26.8911 115.524 27.1988C115.856 27.5065 116.242 27.7415 116.662 27.89C117.081 28.0385 117.525 28.0973 117.966 28.0632C118.506 28.1037 119.046 27.9914 119.53 27.738C120.014 27.4846 120.424 27.0994 120.716 26.6229H120.785V27.8231H122.848V22.0501C122.848 19.4216 120.946 17.8974 118.505 17.8974L118.448 17.8614ZM118.184 26.0828C117.485 26.0828 116.511 25.7107 116.511 24.8106C116.511 23.6104 117.726 23.2143 118.803 23.2143C119.484 23.1967 120.156 23.3708 120.751 23.7184C120.679 24.3682 120.386 24.969 119.925 25.4101C119.463 25.8512 118.866 26.1029 118.241 26.1188L118.184 26.0828ZM130.365 18.2214L127.913 24.7266H127.844L125.3 18.2214H123.008L126.824 27.319L124.647 32.3719H126.882L132.749 18.2214H130.365ZM111.102 27.8231H113.245V12.8205H111.102V27.8231Z" fill="white"/>
<path d="M42.8364 4.1839C42.8559 4.62412 42.7897 5.0639 42.642 5.47654C42.4942 5.88918 42.268 6.26606 41.9769 6.58432C41.6519 6.9379 41.2595 7.21577 40.8251 7.39982C40.3907 7.58387 39.9241 7.66997 39.4558 7.65251C38.7453 7.64669 38.0523 7.42138 37.4635 7.00482C36.8747 6.58826 36.4164 5.99897 36.146 5.31079C35.8756 4.62262 35.8051 3.86617 35.9434 3.13622C36.0816 2.40627 36.4225 1.7353 36.9233 1.20737C37.2524 0.855452 37.647 0.578009 38.0826 0.39221C38.5182 0.206411 38.9856 0.116208 39.4558 0.127184C39.9403 0.125494 40.42 0.227604 40.8653 0.427237C41.28 0.602412 41.6492 0.877985 41.9425 1.23138L41.3352 1.86749C41.1065 1.58255 40.8176 1.35723 40.4914 1.20934C40.1653 1.06144 39.8107 0.99503 39.4558 1.01534C39.0979 1.0135 38.7433 1.08739 38.4133 1.23257C38.0832 1.37774 37.7846 1.59123 37.5353 1.86022C37.2859 2.12921 37.091 2.44816 36.9622 2.79795C36.8335 3.14774 36.7734 3.52117 36.7858 3.89585C36.7783 4.45531 36.9291 5.00457 37.2193 5.47433C37.5095 5.94409 37.9261 6.31332 38.4164 6.53543C38.9067 6.75753 39.4489 6.82257 39.9744 6.72234C40.5 6.6221 40.9855 6.36109 41.3696 5.97222C41.7222 5.57199 41.9256 5.05226 41.9425 4.50796H39.4558V3.64381H42.7905C42.8211 3.82205 42.8364 4.0028 42.8364 4.1839ZM48.0848 1.18337H44.9907V3.46377H47.8098V4.32793H44.9907V6.60833H48.0848V7.49649H44.074V0.295213H48.0848V1.18337ZM51.8435 7.49649H50.9611V1.18337H49.0359V0.295213H53.8145V1.18337H51.8435V7.49649ZM57.1836 7.49649V0.295213H58.066V7.49649H57.1836ZM61.9851 7.49649H61.1027V1.18337H59.1775V0.295213H63.8988V1.18337H61.9851V7.49649ZM72.8487 6.56032C72.1787 7.25806 71.2724 7.64972 70.3276 7.64972C69.3828 7.64972 68.4764 7.25806 67.8065 6.56032C67.1554 5.83842 66.7926 4.88295 66.7926 3.88985C66.7926 2.89675 67.1554 1.94128 67.8065 1.21938C68.1367 0.871008 68.5295 0.594516 68.9622 0.405838C69.3948 0.217159 69.8589 0.120021 70.3276 0.120021C70.7963 0.120021 71.2603 0.217159 71.693 0.405838C72.1257 0.594516 72.5185 0.871008 72.8487 1.21938C73.5024 1.9399 73.8669 2.89589 73.8669 3.88985C73.8669 4.88381 73.5024 5.8398 72.8487 6.56032ZM68.4597 5.96021C68.9558 6.47765 69.6274 6.76816 70.3276 6.76816C71.0277 6.76816 71.6994 6.47765 72.1955 5.96021C72.6851 5.39494 72.9563 4.65905 72.9563 3.89585C72.9563 3.13265 72.6851 2.39676 72.1955 1.83149C71.6994 1.31405 71.0277 1.02353 70.3276 1.02353C69.6274 1.02353 68.9558 1.31405 68.4597 1.83149C67.9701 2.39676 67.6989 3.13265 67.6989 3.89585C67.6989 4.65905 67.9701 5.39494 68.4597 5.96021ZM75.1062 7.49649V0.295213H76.1834L79.5295 5.9002V0.295213H80.4119V7.49649H79.4952L76 1.62745V7.49649H75.1062Z" fill="white"/>
<path fill-rule="evenodd" clip-rule="evenodd" d="M70.3276 0.240042C69.874 0.240042 69.4249 0.334047 69.0062 0.516639C68.5879 0.699041 68.2082 0.966244 67.8888 1.30288C67.2584 2.00237 66.9072 2.92789 66.9072 3.88985C66.9072 4.85168 67.2583 5.77709 67.8886 6.47655C68.5369 7.15109 69.4137 7.5297 70.3276 7.5297C71.2416 7.5297 72.1184 7.15103 72.7667 6.4764C73.3995 5.77833 73.7523 4.85247 73.7523 3.88985C73.7523 2.92711 73.3994 2.00114 72.7665 1.30304C72.4471 0.966327 72.0673 0.699069 71.649 0.516639C71.2302 0.334046 70.7812 0.240042 70.3276 0.240042ZM68.9181 0.295036C69.3648 0.100271 69.8438 0 70.3276 0C70.8114 0 71.2904 0.100271 71.7371 0.295036C72.1837 0.489801 72.5891 0.775212 72.93 1.13482L72.9318 1.13668C73.6057 1.87951 73.9815 2.86512 73.9815 3.88985C73.9815 4.91458 73.6057 5.90017 72.9317 6.643L72.9295 6.64546C72.2381 7.36556 71.3027 7.76974 70.3276 7.76974C69.3525 7.76974 68.4171 7.36553 67.7257 6.64542L67.7232 6.64278C67.0519 5.8986 66.678 4.9136 66.678 3.88985C66.678 2.8661 67.052 1.88114 67.7232 1.13696L67.7252 1.13479C68.066 0.775186 68.4715 0.489802 68.9181 0.295036ZM39.4533 0.247176C38.9987 0.236566 38.5469 0.323761 38.1258 0.503367C37.7047 0.682973 37.3233 0.951168 37.0052 1.29136L37.0046 1.29197C36.5197 1.80313 36.1897 2.4528 36.0558 3.15958C35.9219 3.86635 35.9901 4.59879 36.252 5.26512C36.5138 5.93145 36.9576 6.50202 37.5276 6.90536C38.0977 7.3087 38.7688 7.52686 39.4567 7.5325L39.4599 7.53252C39.9121 7.54938 40.3626 7.46629 40.7821 7.28856C41.2015 7.11085 41.5805 6.84257 41.8942 6.50121C42.1745 6.19471 42.3924 5.83177 42.5347 5.4344C42.677 5.03699 42.7407 4.61344 42.7219 4.18946L42.8364 4.1839L42.7218 4.18385C42.7218 4.04326 42.7122 3.90289 42.693 3.76383H39.5704V4.38794H42.0609L42.0571 4.51188C42.0392 5.08497 41.8251 5.63221 41.4538 6.05361L41.4493 6.05865C41.049 6.464 40.5428 6.73594 39.995 6.84042C39.4471 6.9449 38.882 6.8771 38.3709 6.64559C37.8598 6.41407 37.4256 6.0292 37.1231 5.53953C36.8211 5.05067 36.6639 4.47924 36.6712 3.89708C36.6587 3.50723 36.7213 3.11873 36.8553 2.75477C36.9897 2.3899 37.193 2.0572 37.4531 1.77661C37.7131 1.49603 38.0246 1.27335 38.3689 1.12191C38.7121 0.970932 39.0808 0.893872 39.453 0.895306C39.8245 0.874598 40.1955 0.944381 40.537 1.0992C40.8412 1.23716 41.1146 1.4393 41.3402 1.69249L41.7844 1.22722C41.5154 0.927796 41.1873 0.692671 40.8225 0.538545L40.8203 0.537603C40.3892 0.344409 39.925 0.245569 39.4562 0.247205L39.4533 0.247176ZM42.951 4.18114C42.9708 4.63668 42.9022 5.09169 42.7493 5.51868C42.5961 5.94655 42.3615 6.33734 42.0597 6.66734C41.7235 7.03307 41.3174 7.32071 40.868 7.51108C40.4192 7.70125 39.9372 7.79033 39.4533 7.77252C38.7208 7.76618 38.0064 7.53375 37.3993 7.10427C36.7919 6.67449 36.319 6.06649 36.04 5.35647C35.761 4.64645 35.6883 3.86598 35.831 3.11286C35.9736 2.35988 36.3252 1.66772 36.8417 1.12308C37.1818 0.759575 37.5894 0.472991 38.0394 0.281053C38.4891 0.0892534 38.9715 -0.00396121 39.4569 0.00715883C39.9561 0.00562601 40.4503 0.110856 40.9093 0.316403C41.3403 0.498693 41.724 0.785244 42.029 1.15263L42.0991 1.2371L41.3279 2.04489L41.2475 1.94473C41.0302 1.67403 40.7558 1.45998 40.4459 1.31948C40.1361 1.17898 39.7992 1.11589 39.4621 1.13518L39.4553 1.13557C39.1128 1.13381 38.7734 1.2043 38.4576 1.34322C38.1418 1.48214 37.8561 1.68643 37.6175 1.94382C37.3789 2.20121 37.1924 2.50642 37.0692 2.84113C36.9459 3.17585 36.8885 3.53318 36.9003 3.89171L36.9005 3.89754C36.8933 4.43329 37.0376 4.95927 37.3155 5.40913C37.5934 5.85899 37.9923 6.21257 38.4619 6.42527C38.9314 6.63796 39.4506 6.70024 39.9539 6.60426C40.4561 6.50848 40.9201 6.25938 41.2876 5.88831C41.5933 5.54014 41.7801 5.09689 41.8207 4.62798H39.3412V3.52378H42.8864L42.9033 3.62259C42.9349 3.80694 42.9509 3.99385 42.951 4.18114ZM43.9594 0.175192H48.1994V1.30339H45.1053V3.34375H47.9244V4.44795H45.1053V6.48831H48.1994V7.61651H43.9594V0.175192ZM44.1886 0.415234V7.37646H47.9702V6.72835H44.8762V4.20791H47.6952V3.58379H44.8762V1.06335H47.9702V0.415234H44.1886ZM48.9213 0.175192H53.9291V1.30339H51.9581V7.61651H50.8465V1.30339H48.9213V0.175192ZM49.1505 0.415234V1.06335H51.0757V7.37646H51.7289V1.06335H53.6999V0.415234H49.1505ZM57.069 0.175192H58.1806V7.61651H57.069V0.175192ZM57.2982 0.415234V7.37646H57.9514V0.415234H57.2982ZM59.063 0.175192H64.0134V1.30339H62.0997V7.61651H60.9881V1.30339H59.063V0.175192ZM59.2921 0.415234V1.06335H61.2173V7.37646H61.8705V1.06335H63.7842V0.415234H59.2921ZM74.9916 0.175192H76.2469L79.4149 5.48187V0.175192H80.5265V7.61651H79.4316L76.1146 2.04667V7.61651H74.9916V0.175192ZM75.2208 0.415234V7.37646H75.8854V1.20823L79.5587 7.37646H80.2973V0.415234H79.6441V6.31854L76.1199 0.415234H75.2208ZM68.3788 1.74644C68.8964 1.2066 69.5971 0.903513 70.3276 0.903513C71.058 0.903513 71.7588 1.2066 72.2763 1.74644L72.2805 1.75074C72.7892 2.3381 73.0709 3.10283 73.0709 3.89585C73.0709 4.68886 72.7891 5.4535 72.2804 6.04085L72.2764 6.04537C71.7589 6.58521 71.058 6.88819 70.3276 6.88819C69.5971 6.88819 68.8964 6.5851 68.3788 6.04526L68.4597 5.96021L68.3748 6.04085C67.8661 5.45349 67.5843 4.68886 67.5843 3.89585C67.5843 3.10283 67.8661 2.3382 68.3748 1.75085L68.3788 1.74644ZM68.5426 5.87733C69.0171 6.37101 69.6587 6.64814 70.3276 6.64814C70.9965 6.64814 71.6381 6.37102 72.1125 5.87733C72.5818 5.33443 72.8417 4.62823 72.8417 3.89585C72.8417 3.16347 72.5818 2.45727 72.1125 1.91437C71.6381 1.42068 70.9965 1.14356 70.3276 1.14356C69.6587 1.14356 69.0171 1.42068 68.5426 1.91437C68.0734 2.45727 67.8135 3.16347 67.8135 3.89585C67.8135 4.62823 68.0734 5.33443 68.5426 5.87733Z" fill="white"/>
<path d="M0.594737 31.0651L14.6332 15.8149L0.606497 0.592041C0.231846 0.829044 0 1.3778 0 2.09611V29.5756C0.00502466 30.2939 0.228486 30.8026 0.594737 31.0651Z" fill="white"/>
<path d="M15.1372 15.3917L19.3189 10.8486L2.28989 0.704851C2.00314 0.523859 1.67743 0.428259 1.3457 0.427734L15.1355 15.3899L15.1372 15.3917Z" fill="white"/>
<path d="M15.1363 16.2371L1.30273 31.2649C1.64994 31.2712 1.99194 31.1727 2.2906 30.9805L19.3532 20.8094L15.1363 16.2371Z" fill="white"/>
<path d="M25.4881 14.5261L19.8213 11.1443L15.5254 15.8114L19.8532 20.5077L25.4864 17.135C26.6843 16.4185 26.6842 15.239 25.4881 14.5261Z" fill="white"/>
</svg>
