<svg width="131" height="33" viewBox="0 0 131 33" fill="none" xmlns="http://www.w3.org/2000/svg">
<path d="M16.8485 17.6736H1.89685C0.848005 17.6736 0 18.5036 0 19.5303C0 20.5569 0.848005 21.3869 1.89685 21.3869H19.1247C19.1247 21.3869 20.0174 20.5132 19.0578 19.0934C18.0759 17.6736 16.8485 17.6736 16.8485 17.6736Z" fill="white"/>
<path d="M16.0902 2.05274L6.80678 17.7799C6.29351 18.6755 6.58362 19.8113 7.49857 20.3137C8.41353 20.8161 9.57396 20.5322 10.0872 19.6366L19.3706 3.90942C19.8839 3.01385 19.5938 1.878 18.6788 1.3756C17.7639 0.851364 16.6035 1.15717 16.0902 2.05274Z" fill="white"/>
<path d="M27.4496 24.5335L17.9207 8.34766C17.9207 8.34766 16.5371 9.39613 16.5371 11.4712C16.5371 13.5464 17.4074 14.9443 17.4074 14.9443L24.1692 26.4121C24.6824 27.3076 25.8428 27.6134 26.7578 27.0892C27.6504 26.565 27.9629 25.4291 27.4496 24.5335Z" fill="white"/>
<path d="M28.4084 17.6736H23.1195C22.0707 17.6736 21.2227 18.5036 21.2227 19.5303C21.2227 20.5569 22.0707 21.3869 23.1195 21.3869H28.4084C29.4572 21.3869 30.3052 20.5569 30.3052 19.5303C30.3052 18.5255 29.4572 17.6736 28.4084 17.6736Z" fill="white"/>
<path d="M16.2021 5.46376L14.1937 2.03437C13.6804 1.16064 12.4977 0.85483 11.605 1.35723C10.7124 1.85962 10.4 3.01732 10.9132 3.89105L12.9217 7.32044C13.4349 8.19417 14.6177 8.49998 15.5103 7.99758C16.403 7.49519 16.7154 6.35934 16.2021 5.46376Z" fill="white"/>
<path d="M2.83412 24.5098L4.03918 22.4783C4.03918 22.4783 4.32929 21.9104 5.4674 21.9104C6.67246 21.9104 7.83289 22.8933 7.92215 23.2647L6.11456 26.3664C5.6013 27.262 4.44087 27.5678 3.52592 27.0436C2.61097 26.5412 2.32086 25.4053 2.83412 24.5098Z" fill="white"/>
<path d="M51.3709 28.2067H48.7479L47.3111 23.7875H42.3169L40.9482 28.2067H38.3945L43.3425 13.1616H46.3986L51.3709 28.2067ZM46.878 21.9334L45.5786 18.0048C45.4411 17.6035 45.1836 16.6584 44.8036 15.1706H44.7574C44.6061 15.8105 44.3624 16.7556 44.0274 18.0048L42.7512 21.9334H46.878Z" fill="white"/>
<path d="M64.0952 22.6486C64.0952 24.4936 63.5858 25.952 62.5671 27.0226C61.6547 27.9757 60.5216 28.4516 59.1691 28.4516C57.7092 28.4516 56.6605 27.9384 56.0218 26.9118H55.9756V32.6267H53.5131V20.9291C53.5131 19.7691 53.4819 18.5787 53.4219 17.3577H55.5875L55.7249 19.0773H55.7711C56.5923 17.7817 57.8386 17.135 59.511 17.135C60.8184 17.135 61.9099 17.6404 62.7831 18.6522C63.6586 19.6651 64.0952 20.9969 64.0952 22.6486ZM61.5865 22.7368C61.5865 21.6809 61.344 20.8104 60.8566 20.1253C60.3241 19.4108 59.6092 19.0535 58.7129 19.0535C58.1054 19.0535 57.5533 19.2525 57.0601 19.6448C56.5658 20.0405 56.2424 20.5571 56.0911 21.197C56.0148 21.4955 55.9767 21.7397 55.9767 21.9319V23.7407C55.9767 24.5298 56.2239 25.1957 56.7182 25.7395C57.2126 26.2833 57.8547 26.5546 58.6447 26.5546C59.5722 26.5546 60.2941 26.2041 60.8104 25.5055C61.3278 24.8057 61.5865 23.8831 61.5865 22.7368Z" fill="white"/>
<path d="M76.844 22.6486C76.844 24.4936 76.3347 25.952 75.3148 27.0226C74.4035 27.9757 73.2705 28.4516 71.918 28.4516C70.458 28.4516 69.4093 27.9384 68.7718 26.9118H68.7256V32.6267H66.2631V20.9291C66.2631 19.7691 66.2319 18.5787 66.1719 17.3577H68.3375L68.4749 19.0773H68.5211C69.3412 17.7817 70.5874 17.135 72.261 17.135C73.5673 17.135 74.6588 17.6404 75.5342 18.6522C76.4063 19.6651 76.844 20.9969 76.844 22.6486ZM74.3354 22.7368C74.3354 21.6809 74.0917 20.8104 73.6042 20.1253C73.0718 19.4108 72.3592 19.0535 71.4617 19.0535C70.8531 19.0535 70.3021 19.2525 69.8078 19.6448C69.3135 20.0405 68.9912 20.5571 68.8399 21.197C68.7648 21.4955 68.7256 21.7397 68.7256 21.9319V23.7407C68.7256 24.5298 68.9727 25.1957 69.4648 25.7395C69.9591 26.2821 70.6013 26.5546 71.3936 26.5546C72.3211 26.5546 73.0429 26.2041 73.5592 25.5055C74.0766 24.8057 74.3354 23.8831 74.3354 22.7368Z" fill="white"/>
<path d="M91.0962 23.9864C91.0962 25.2661 90.6423 26.3073 89.731 27.1111C88.7296 27.9896 87.3355 28.4282 85.5441 28.4282C83.8902 28.4282 82.5642 28.1162 81.5605 27.491L82.1311 25.482C83.2122 26.1219 84.3984 26.443 85.6908 26.443C86.6183 26.443 87.3401 26.2372 87.8587 25.828C88.375 25.4187 88.6326 24.8693 88.6326 24.1842C88.6326 23.5737 88.42 23.0593 87.9939 22.6422C87.57 22.225 86.862 21.8372 85.8733 21.4788C83.1822 20.4964 81.8378 19.0572 81.8378 17.1647C81.8378 15.9279 82.309 14.9138 83.2526 14.1247C84.1928 13.3345 85.4471 12.9399 87.0156 12.9399C88.4143 12.9399 89.5762 13.1785 90.5037 13.6544L89.888 15.6193C89.0218 15.158 88.0424 14.9274 86.9463 14.9274C86.08 14.9274 85.4032 15.1366 84.9181 15.5526C84.5081 15.9245 84.3025 16.3779 84.3025 16.9149C84.3025 17.5095 84.537 18.0013 85.0082 18.388C85.4182 18.7452 86.1632 19.1319 87.2443 19.549C88.5667 20.0702 89.5381 20.6796 90.1629 21.3782C90.7855 22.0746 91.0962 22.9463 91.0962 23.9864Z" fill="white"/>
<path d="M99.2381 19.1672H96.5238V24.4344C96.5238 25.774 97.002 26.4433 97.9606 26.4433C98.4007 26.4433 98.7657 26.406 99.0544 26.3314L99.1226 28.1617C98.6375 28.3392 97.9987 28.4285 97.2076 28.4285C96.2351 28.4285 95.4751 28.138 94.9265 27.558C94.3802 26.9769 94.1053 26.0024 94.1053 24.6333V19.165H92.4883V17.3561H94.1053V15.3698L96.5238 14.6553V17.3561H99.2381V19.1672Z" fill="white"/>
<path d="M111.485 22.6916C111.485 24.3591 110.997 25.7282 110.025 26.7988C109.005 27.9011 107.651 28.4505 105.964 28.4505C104.338 28.4505 103.043 27.9225 102.077 26.8666C101.112 25.8107 100.629 24.4778 100.629 22.8713C100.629 21.1902 101.126 19.8132 102.122 18.7426C103.117 17.6709 104.459 17.135 106.146 17.135C107.773 17.135 109.081 17.663 110.069 18.72C111.013 19.7454 111.485 21.0693 111.485 22.6916ZM108.93 22.7696C108.93 21.7691 108.712 20.911 108.269 20.1954C107.753 19.3294 107.015 18.8975 106.059 18.8975C105.069 18.8975 104.317 19.3305 103.801 20.1954C103.358 20.9121 103.14 21.7838 103.14 22.8148C103.14 23.8153 103.358 24.6734 103.801 25.3879C104.333 26.2539 105.077 26.6857 106.037 26.6857C106.977 26.6857 107.715 26.2448 108.247 25.3653C108.701 24.6361 108.93 23.769 108.93 22.7696Z" fill="white"/>
<path d="M119.488 19.4775C119.245 19.4334 118.985 19.4108 118.712 19.4108C117.846 19.4108 117.176 19.7307 116.705 20.3717C116.295 20.937 116.089 21.6515 116.089 22.5141V28.2063H113.628L113.651 20.7742C113.651 19.5238 113.62 18.3854 113.559 17.3589H115.703L115.794 19.4345H115.862C116.122 18.7211 116.532 18.1468 117.093 17.7161C117.641 17.3283 118.234 17.135 118.873 17.135C119.1 17.135 119.306 17.1508 119.488 17.1791V19.4775Z" fill="white"/>
<path d="M130.5 22.2661C130.5 22.698 130.471 23.062 130.41 23.3594H123.023C123.052 24.4311 123.409 25.2508 124.095 25.816C124.717 26.3214 125.522 26.5746 126.511 26.5746C127.605 26.5746 128.603 26.4039 129.5 26.0613L129.886 27.7345C128.837 28.1822 127.599 28.4049 126.17 28.4049C124.451 28.4049 123.102 27.9098 122.121 26.9205C121.141 25.9313 120.65 24.603 120.65 22.9366C120.65 21.3007 121.107 19.9384 122.02 18.8519C122.977 17.692 124.269 17.1121 125.895 17.1121C127.493 17.1121 128.702 17.692 129.523 18.8519C130.173 19.7733 130.5 20.9129 130.5 22.2661ZM128.152 21.641C128.168 20.9265 128.008 20.3092 127.674 19.788C127.248 19.1176 126.593 18.783 125.712 18.783C124.907 18.783 124.252 19.1097 123.752 19.7654C123.342 20.2866 123.098 20.9118 123.023 21.6398H128.152V21.641Z" fill="white"/>
<path d="M46.0644 3.90448C46.0644 5.23512 45.6566 6.23677 44.8424 6.90943C44.0882 7.53009 43.0163 7.84099 41.628 7.84099C40.9397 7.84099 40.3506 7.81159 39.8574 7.75281V0.482365C40.5008 0.380617 41.1937 0.328613 41.9422 0.328613C43.2647 0.328613 44.2614 0.610115 44.9336 1.17312C45.6867 1.80961 46.0644 2.71969 46.0644 3.90448ZM44.7881 3.93727C44.7881 3.07467 44.5548 2.41331 44.0882 1.95205C43.6215 1.49193 42.9401 1.2613 42.0427 1.2613C41.6615 1.2613 41.337 1.28617 41.0679 1.33818V6.86534C41.2168 6.88795 41.4894 6.89813 41.8856 6.89813C42.8119 6.89813 43.5268 6.64602 44.0304 6.1418C44.534 5.63758 44.7881 4.90274 44.7881 3.93727Z" fill="white"/>
<path d="M52.8306 5.06357C52.8306 5.88321 52.5916 6.55474 52.1134 7.08157C51.6121 7.62309 50.948 7.89329 50.1187 7.89329C49.3195 7.89329 48.6831 7.6344 48.2084 7.11436C47.7348 6.59544 47.498 5.94086 47.498 5.15175C47.498 4.32647 47.7417 3.64928 48.2315 3.12358C48.7212 2.59789 49.3795 2.33447 50.2088 2.33447C51.0081 2.33447 51.6502 2.59336 52.1365 3.11228C52.5985 3.61649 52.8306 4.26768 52.8306 5.06357ZM51.5752 5.10201C51.5752 4.61023 51.4666 4.18854 51.2506 3.83695C50.9965 3.41187 50.635 3.19933 50.1649 3.19933C49.6787 3.19933 49.3091 3.41187 49.055 3.83695C48.8378 4.18854 48.7304 4.61701 48.7304 5.12349C48.7304 5.61527 48.839 6.03696 49.055 6.38855C49.3172 6.81363 49.6821 7.02617 50.1534 7.02617C50.6154 7.02617 50.978 6.81024 51.2391 6.37725C51.4631 6.01887 51.5752 5.59379 51.5752 5.10201Z" fill="white"/>
<path d="M61.9062 2.44507L60.2026 7.77439H59.0938L58.3881 5.46019C58.209 4.88249 58.0635 4.30818 57.9503 3.7384H57.9284C57.8233 4.32401 57.6777 4.89719 57.4906 5.46019L56.741 7.77439H55.6195L54.0176 2.44507H55.2615L55.8771 4.97859C56.0261 5.57777 56.1485 6.14869 56.2467 6.68908H56.2687C56.3587 6.24365 56.5077 5.67613 56.7179 4.98989L57.4906 2.4462H58.477L59.2174 4.93563C59.3964 5.54272 59.5419 6.12721 59.6539 6.69021H59.6874C59.7694 6.1419 59.893 5.55742 60.057 4.93563L60.7177 2.4462H61.9062V2.44507Z" fill="white"/>
<path d="M68.1806 7.77572H66.9702V4.72328C66.9702 3.78268 66.6052 3.31238 65.873 3.31238C65.5137 3.31238 65.2239 3.44126 64.9986 3.70015C64.7757 3.95905 64.6625 4.26429 64.6625 4.61362V7.77459H63.4521V3.96922C63.4521 3.50118 63.4371 2.99357 63.4082 2.44413H64.4719L64.5285 3.27734H64.562C64.703 3.01844 64.9132 2.80477 65.1892 2.63406C65.5172 2.43509 65.8845 2.33447 66.2864 2.33447C66.7946 2.33447 67.2174 2.49501 67.5535 2.81721C67.9716 3.21176 68.1806 3.80077 68.1806 4.5831V7.77572Z" fill="white"/>
<path d="M71.5179 7.77466H70.3086V0H71.5179V7.77466Z" fill="white"/>
<path d="M78.6451 5.06357C78.6451 5.88321 78.406 6.55474 77.9279 7.08157C77.4266 7.62309 76.7613 7.89329 75.9332 7.89329C75.1328 7.89329 74.4964 7.6344 74.0228 7.11436C73.5493 6.59544 73.3125 5.94086 73.3125 5.15175C73.3125 4.32647 73.5562 3.64928 74.0459 3.12358C74.5356 2.59789 75.194 2.33447 76.0221 2.33447C76.8225 2.33447 77.4635 2.59336 77.9509 3.11228C78.4129 3.61649 78.6451 4.26768 78.6451 5.06357ZM77.3885 5.10201C77.3885 4.61023 77.2799 4.18854 77.0639 3.83695C76.811 3.41187 76.4483 3.19933 75.9794 3.19933C75.492 3.19933 75.1224 3.41187 74.8694 3.83695C74.6523 4.18854 74.5449 4.61701 74.5449 5.12349C74.5449 5.61527 74.6534 6.03696 74.8694 6.38855C75.1316 6.81363 75.4966 7.02617 75.9678 7.02617C76.4298 7.02617 76.7913 6.81024 77.0524 6.37725C77.2776 6.01887 77.3885 5.59379 77.3885 5.10201Z" fill="white"/>
<path d="M84.503 7.77232H83.4162L83.3261 7.15845H83.2926C82.9207 7.64797 82.3905 7.89329 81.7022 7.89329C81.1882 7.89329 80.7724 7.73163 80.4594 7.41055C80.1753 7.11888 80.0332 6.75598 80.0332 6.32524C80.0332 5.67406 80.3104 5.17776 80.8683 4.83407C81.425 4.49039 82.2081 4.32194 83.2164 4.32986V4.23037C83.2164 3.52831 82.8398 3.17785 82.0856 3.17785C81.5486 3.17785 81.075 3.31012 80.6661 3.5724L80.4201 2.7946C80.926 2.48822 81.5509 2.33447 82.2878 2.33447C83.7107 2.33447 84.4245 3.06932 84.4245 4.53901V6.50161C84.4245 7.03409 84.4511 7.45804 84.503 7.77232ZM83.2464 5.94086V5.11897C81.9112 5.09636 81.2436 5.45474 81.2436 6.19297C81.2436 6.47108 81.3199 6.6791 81.4758 6.81816C81.6317 6.95721 81.8304 7.02617 82.0671 7.02617C82.3328 7.02617 82.5811 6.94365 82.8075 6.77972C83.035 6.61466 83.1748 6.40551 83.2268 6.14888C83.2395 6.09122 83.2464 6.02113 83.2464 5.94086Z" fill="white"/>
<path d="M91.3791 7.77466H90.305L90.2484 6.91885H90.2149C89.8718 7.57003 89.2874 7.89563 88.4662 7.89563C87.8102 7.89563 87.2639 7.64352 86.8307 7.1393C86.3976 6.63508 86.1816 5.98051 86.1816 5.1767C86.1816 4.3141 86.4161 3.61544 86.8873 3.08183C87.3436 2.58439 87.9026 2.33568 88.5678 2.33568C89.299 2.33568 89.8106 2.57648 90.1017 3.05922H90.1248V0H91.3364V6.33888C91.3364 6.8578 91.3502 7.33601 91.3791 7.77466ZM90.1248 5.52716V4.63857C90.1248 4.48482 90.1132 4.36046 90.0913 4.26549C90.0231 3.9806 89.8765 3.74093 89.6535 3.54761C89.4283 3.35428 89.1569 3.25706 88.8439 3.25706C88.3923 3.25706 88.0389 3.43229 87.779 3.78389C87.5214 4.13548 87.3909 4.5843 87.3909 5.13261C87.3909 5.65944 87.5145 6.08678 87.7628 6.41576C88.025 6.76623 88.3784 6.94146 88.8208 6.94146C89.2181 6.94146 89.5357 6.79562 89.7771 6.50281C90.0104 6.23261 90.1248 5.90702 90.1248 5.52716Z" fill="white"/>
<path d="M101.733 5.06357C101.733 5.88321 101.494 6.55474 101.016 7.08157C100.514 7.62309 99.8515 7.89329 99.0211 7.89329C98.223 7.89329 97.5866 7.6344 97.1107 7.11436C96.6372 6.59544 96.4004 5.94086 96.4004 5.15175C96.4004 4.32647 96.6441 3.64928 97.1338 3.12358C97.6235 2.59789 98.2819 2.33447 99.1123 2.33447C99.9104 2.33447 100.554 2.59336 101.039 3.11228C101.501 3.61649 101.733 4.26768 101.733 5.06357ZM100.479 5.10201C100.479 4.61023 100.37 4.18854 100.154 3.83695C99.8989 3.41187 99.5385 3.19933 99.0673 3.19933C98.5822 3.19933 98.2126 3.41187 97.9573 3.83695C97.7402 4.18854 97.6328 4.61701 97.6328 5.12349C97.6328 5.61527 97.7413 6.03696 97.9573 6.38855C98.2195 6.81363 98.5845 7.02617 99.0557 7.02617C99.5177 7.02617 99.8815 6.81024 100.143 6.37725C100.365 6.01887 100.479 5.59379 100.479 5.10201Z" fill="white"/>
<path d="M108.24 7.77572H107.031V4.72328C107.031 3.78268 106.666 3.31238 105.932 3.31238C105.573 3.31238 105.283 3.44126 105.059 3.70015C104.835 3.95905 104.723 4.26429 104.723 4.61362V7.77459H103.511V3.96922C103.511 3.50118 103.498 2.99357 103.469 2.44413H104.531L104.588 3.27734H104.621C104.763 3.01844 104.974 2.80477 105.249 2.63406C105.578 2.43509 105.944 2.33447 106.347 2.33447C106.854 2.33447 107.277 2.49501 107.613 2.81721C108.032 3.21176 108.24 3.80077 108.24 4.5831V7.77572Z" fill="white"/>
<path d="M116.388 3.33019H115.055V5.9191C115.055 6.57707 115.292 6.90606 115.761 6.90606C115.978 6.90606 116.158 6.88797 116.3 6.85066L116.332 7.74943C116.093 7.83762 115.778 7.88171 115.391 7.88171C114.913 7.88171 114.541 7.73926 114.272 7.45437C114.002 7.16947 113.868 6.69013 113.868 6.01746V3.33019H113.072V2.44272H113.868V1.46594L115.054 1.11548V2.44159H116.387V3.33019H116.388Z" fill="white"/>
<path d="M122.795 7.77466H121.583V4.74484C121.583 3.78954 121.218 3.31132 120.487 3.31132C119.926 3.31132 119.542 3.5883 119.332 4.14226C119.296 4.25871 119.276 4.40116 119.276 4.56847V7.77353H118.066V0H119.276V3.21184H119.299C119.68 2.62735 120.226 2.33568 120.934 2.33568C121.436 2.33568 121.85 2.49621 122.179 2.81841C122.589 3.21975 122.795 3.81667 122.795 4.60578V7.77466Z" fill="white"/>
<path d="M129.405 4.85792C129.405 5.07046 129.389 5.24908 129.36 5.39492H125.73C125.746 5.92175 125.919 6.32309 126.255 6.6012C126.563 6.84991 126.959 6.97427 127.444 6.97427C127.981 6.97427 128.471 6.89061 128.912 6.72216L129.101 7.54519C128.585 7.76451 127.977 7.87417 127.274 7.87417C126.431 7.87417 125.767 7.63111 125.286 7.14498C124.804 6.65885 124.564 6.00654 124.564 5.18803C124.564 4.38423 124.787 3.71495 125.237 3.18134C125.706 2.61155 126.34 2.32666 127.14 2.32666C127.923 2.32666 128.518 2.61155 128.92 3.18134C129.244 3.63355 129.405 4.19317 129.405 4.85792ZM128.25 4.55154C128.259 4.19995 128.18 3.89697 128.016 3.64147C127.805 3.31248 127.485 3.14743 127.052 3.14743C126.657 3.14743 126.335 3.30796 126.089 3.63016C125.888 3.88679 125.769 4.19317 125.73 4.55154H128.25Z" fill="white"/>
</svg>
