<svg width="36" height="32" viewBox="0 0 36 32" fill="none" xmlns="http://www.w3.org/2000/svg">
<path d="M34.875 29.2501H32.625V1.12509C32.625 0.93984 32.5793 0.757449 32.4919 0.594118C32.4044 0.430788 32.278 0.291574 32.1239 0.188839C31.9697 0.0861045 31.7926 0.0230292 31.6082 0.00521424C31.4238 -0.0126008 31.2378 0.0153962 31.0669 0.0867191L19.125 5.06259V1.12509C19.125 0.93984 19.0793 0.757449 18.9919 0.594118C18.9044 0.430788 18.778 0.291574 18.6239 0.188839C18.4697 0.0861045 18.2926 0.0230292 18.1082 0.00521424C17.9238 -0.0126008 17.7378 0.0153962 17.5669 0.0867191L4.06687 5.71172C3.86195 5.7972 3.68691 5.94142 3.56379 6.1262C3.44067 6.31097 3.37498 6.52805 3.375 6.75009V29.2501H1.125C0.826631 29.2501 0.540483 29.3686 0.329505 29.5796C0.118526 29.7906 0 30.0767 0 30.3751C0 30.6735 0.118526 30.9596 0.329505 31.1706C0.540483 31.3816 0.826631 31.5001 1.125 31.5001H34.875C35.1734 31.5001 35.4595 31.3816 35.6705 31.1706C35.8815 30.9596 36 30.6735 36 30.3751C36 30.0767 35.8815 29.7906 35.6705 29.5796C35.4595 29.3686 35.1734 29.2501 34.875 29.2501ZM30.375 2.81259V29.2501H28.125V22.5001C28.125 22.2017 28.0065 21.9156 27.7955 21.7046C27.5845 21.4936 27.2984 21.3751 27 21.3751H22.5C22.2016 21.3751 21.9155 21.4936 21.7045 21.7046C21.4935 21.9156 21.375 22.2017 21.375 22.5001V29.2501H19.125V7.50047L30.375 2.81259ZM5.625 7.50047L16.875 2.81259V29.2501H14.625V22.5001C14.625 22.2017 14.5065 21.9156 14.2955 21.7046C14.0845 21.4936 13.7984 21.3751 13.5 21.3751H9C8.70163 21.3751 8.41548 21.4936 8.2045 21.7046C7.99353 21.9156 7.875 22.2017 7.875 22.5001V29.2501H5.625V7.50047ZM10.125 29.2501V23.6251H12.375V29.2501H10.125ZM23.625 29.2501V23.6251H25.875V29.2501H23.625Z" fill="#F79901"/>
<path d="M9 18H13.5C13.7984 18 14.0845 17.8815 14.2955 17.6705C14.5065 17.4595 14.625 17.1734 14.625 16.875V11.25C14.625 10.9516 14.5065 10.6655 14.2955 10.4545C14.0845 10.2435 13.7984 10.125 13.5 10.125H9C8.70163 10.125 8.41548 10.2435 8.20451 10.4545C7.99353 10.6655 7.875 10.9516 7.875 11.25V16.875C7.875 17.1734 7.99353 17.4595 8.20451 17.6705C8.41548 17.8815 8.70163 18 9 18ZM10.125 12.375H12.375V15.75H10.125V12.375Z" fill="#F79901"/>
<path d="M22.5 18H27C27.2984 18 27.5845 17.8815 27.7955 17.6705C28.0065 17.4595 28.125 17.1734 28.125 16.875V11.25C28.125 10.9516 28.0065 10.6655 27.7955 10.4545C27.5845 10.2435 27.2984 10.125 27 10.125H22.5C22.2016 10.125 21.9155 10.2435 21.7045 10.4545C21.4935 10.6655 21.375 10.9516 21.375 11.25V16.875C21.375 17.1734 21.4935 17.4595 21.7045 17.6705C21.9155 17.8815 22.2016 18 22.5 18ZM23.625 12.375H25.875V15.75H23.625V12.375Z" fill="#F79901"/>
</svg>
