<svg width="39" height="40" viewBox="0 0 39 40" fill="none" xmlns="http://www.w3.org/2000/svg">
<g clip-path="url(#clip0_1643_10130)">
<path d="M12.9901 7.70605H5.99609C5.34882 7.70605 4.82422 8.23065 4.82422 8.87793C4.82422 9.52521 5.34882 10.0498 5.99609 10.0498H12.9901C13.6371 10.0498 14.162 9.52521 14.162 8.87793C14.162 8.23065 13.6371 7.70605 12.9901 7.70605Z" fill="#F79901"/>
<path d="M12.9901 12.3936H5.99609C5.34882 12.3936 4.82422 12.9182 4.82422 13.5654C4.82422 14.2127 5.34882 14.7373 5.99609 14.7373H12.9901C13.6371 14.7373 14.162 14.2127 14.162 13.5654C14.162 12.9182 13.6371 12.3936 12.9901 12.3936Z" fill="#F79901"/>
<path d="M12.9901 17.0815H5.99609C5.34882 17.0815 4.82422 17.6061 4.82422 18.2534C4.82422 18.9007 5.34882 19.4253 5.99609 19.4253H12.9901C13.6371 19.4253 14.162 18.9007 14.162 18.2534C14.162 17.6061 13.6371 17.0815 12.9901 17.0815Z" fill="#F79901"/>
<path d="M12.9901 21.7695H5.99609C5.34882 21.7695 4.82422 22.2941 4.82422 22.9414C4.82422 23.5887 5.34882 24.1133 5.99609 24.1133H12.9901C13.6371 24.1133 14.162 23.5887 14.162 22.9414C14.162 22.2941 13.6371 21.7695 12.9901 21.7695Z" fill="#F79901"/>
<path d="M12.9901 26.5356H5.99609C5.34882 26.5356 4.82422 27.0605 4.82422 27.7075C4.82422 28.3548 5.34882 28.8794 5.99609 28.8794H12.9901C13.6371 28.8794 14.162 28.3548 14.162 27.7075C14.162 27.0605 13.6371 26.5356 12.9901 26.5356Z" fill="#F79901"/>
<path d="M16.9258 10.0498H23.9198C24.5671 10.0498 25.0917 9.52521 25.0917 8.87793C25.0917 8.23065 24.5671 7.70605 23.9198 7.70605H16.9258C16.2788 7.70605 15.7539 8.23065 15.7539 8.87793C15.7539 9.52521 16.2788 10.0498 16.9258 10.0498Z" fill="#F79901"/>
<path d="M16.9258 14.7373H23.9198C24.5671 14.7373 25.0917 14.2127 25.0917 13.5654C25.0917 12.9182 24.5671 12.3936 23.9198 12.3936H16.9258C16.2788 12.3936 15.7539 12.9182 15.7539 13.5654C15.7539 14.2127 16.2788 14.7373 16.9258 14.7373Z" fill="#F79901"/>
<path d="M21.4662 18.2534C21.4662 17.6061 20.9416 17.0815 20.2943 17.0815H16.9258C16.2788 17.0815 15.7539 17.6061 15.7539 18.2534C15.7539 18.9007 16.2788 19.4253 16.9258 19.4253H20.2943C20.9416 19.4253 21.4662 18.9007 21.4662 18.2534Z" fill="#F79901"/>
<path d="M32.5675 27.0303C32.0627 26.6253 31.3254 26.7062 30.9201 27.211L27.902 30.9738L26.0334 29.62C25.5094 29.2401 24.7763 29.3573 24.3967 29.8813C24.0171 30.4055 24.1342 31.1383 24.6582 31.5179L27.4302 33.5263C27.6377 33.6764 27.8781 33.7494 28.1171 33.7494C28.461 33.7494 28.801 33.5983 29.0317 33.3105L32.7485 28.6776C33.1534 28.1729 33.0726 27.4353 32.5675 27.0303Z" fill="#F79901"/>
<path d="M35.5301 23.4329C34.0036 21.8796 32.0422 20.9006 29.917 20.6122V4.71954C29.917 2.11731 27.7997 0 25.1974 0H4.71985C2.11731 0 0 2.11731 0 4.71954V31.8658C0 34.4684 2.11731 36.5857 4.71954 36.5857H21.1896C23.0429 38.7628 25.7077 40 28.5907 40C33.9572 40 38.3231 35.6311 38.3231 30.2609C38.3231 27.6901 37.3312 25.2652 35.5301 23.4329ZM2.34375 31.8658V4.71954C2.34375 3.40973 3.40973 2.34375 4.71985 2.34375H25.1974C26.5076 2.34375 27.5732 3.40973 27.5732 4.71954V20.575C22.6831 21.0855 18.8583 25.2344 18.8583 30.2609C18.8583 31.6541 19.1489 33.0011 19.7061 34.2416H4.71985C3.40973 34.2416 2.34375 33.176 2.34375 31.8658ZM28.5907 37.6562C26.2503 37.6562 24.0988 36.5817 22.6874 34.7086C21.7157 33.4186 21.2018 31.8808 21.2018 30.2609C21.2018 26.1832 24.5166 22.8656 28.5907 22.8656C28.6292 22.8656 28.6679 22.8662 28.7064 22.8668L28.7244 22.8671C30.6693 22.9016 32.4927 23.6859 33.8586 25.0757C35.2261 26.467 35.9793 28.3087 35.9793 30.2609C35.9793 34.3387 32.6648 37.6562 28.5907 37.6562Z" fill="#F79901"/>
</g>
<defs>
<clipPath id="clip0_1643_10130">
<rect width="38.3594" height="40" fill="white"/>
</clipPath>
</defs>
</svg>
